<svg id="color" enable-background="new 0 0 24 24" height="512" viewBox="0 0 24 24" width="512" xmlns="http://www.w3.org/2000/svg"><path d="m21 4v10.04c-.16-.03-.33-.04-.5-.04-.55 0-1.06.15-1.5.41v-8.41h-17v11c0 .55.45 1 1 1h12.41c-.26.44-.41.95-.41 1.5 0 .17.01.34.04.5h-12.04c-1.65 0-3-1.35-3-3v-13c0-1.65 1.35-3 3-3h15c1.65 0 3 1.35 3 3z" fill="#607d8b"/><path d="m19 6v8.41c-.76.44-1.31 1.23-1.45 2.14-.91.14-1.7.69-2.14 1.45h-12.41c-.55 0-1-.45-1-1v-11z" fill="#fff"/><path d="m10.206 1h-7.206c-1.65 0-3 1.35-3 3v13c0 1.65 1.35 3 3 3h7.206v-2h-7.206c-.55 0-1-.45-1-1v-11h8.206z" fill="#546d79"/><path d="m10.206 6h-8.206v11c0 .55.45 1 1 1h7.206z" fill="#dedede"/><path d="m23 18.5h-1.5v-1.5c0-.552-.448-1-1-1s-1 .448-1 1v1.5h-1.5c-.552 0-1 .448-1 1s.448 1 1 1h1.5v1.5c0 .552.448 1 1 1s1-.448 1-1v-1.5h1.5c.552 0 1-.448 1-1s-.448-1-1-1z" fill="#2196f3"/><path d="m20.5 16c-.552 0-1 .448-1 1v1.5h-1.5c-.552 0-1 .448-1 1s.448 1 1 1h1.5v1.5c0 .552.448 1 1 1z" fill="#1d83d4"/></svg>